<svg width="90" height="90" viewBox="0 0 90 90" fill="none" xmlns="http://www.w3.org/2000/svg">
<path fill-rule="evenodd" clip-rule="evenodd" d="M79.7781 74.172C79.8431 74.1262 79.8972 74.0666 79.9364 73.9974C79.9757 73.9283 79.9991 73.8513 80.0051 73.772V63.046C79.9991 62.9667 79.9757 62.8897 79.9364 62.8206C79.8972 62.7514 79.8431 62.6918 79.7781 62.646C79.54 62.4651 79.2471 62.3709 78.9481 62.379H64.6481C64.3491 62.3709 64.0563 62.4651 63.8181 62.646C63.7531 62.6918 63.6991 62.7514 63.6598 62.8206C63.6206 62.8897 63.5971 62.9667 63.5911 63.046V73.776C63.5971 73.8553 63.6206 73.9323 63.6598 74.0014C63.6991 74.0706 63.7531 74.1302 63.8181 74.176C64.0563 74.3569 64.3491 74.4511 64.6481 74.443H78.9481C79.2471 74.4511 79.54 74.3569 79.7781 74.176V74.172ZM75.3461 60.223V59.687C75.3461 58.7463 74.9724 57.8441 74.3072 57.1789C73.6421 56.5137 72.7399 56.14 71.7991 56.14C70.8584 56.14 69.9562 56.5137 69.291 57.1789C68.6258 57.8441 68.2521 58.7463 68.2521 59.687V60.221L75.3461 60.223ZM66.0921 60.223V59.687C66.0921 58.1734 66.6934 56.7218 67.7637 55.6515C68.8339 54.5813 70.2855 53.98 71.7991 53.98C73.3127 53.98 74.7643 54.5813 75.8346 55.6515C76.9049 56.7218 77.5061 58.1734 77.5061 59.687V60.221H78.9481C79.7426 60.2156 80.5149 60.4828 81.1361 60.978C81.4518 61.223 81.7082 61.536 81.8863 61.8936C82.0644 62.2513 82.1597 62.6445 82.1651 63.044V73.774C82.1599 74.1736 82.0646 74.5668 81.8865 74.9245C81.7083 75.2821 81.4519 75.5951 81.1361 75.84C80.5149 76.3352 79.7426 76.6024 78.9481 76.597H64.6481C63.8537 76.6024 63.0814 76.3352 62.4601 75.84C62.1444 75.5951 61.8879 75.2821 61.7098 74.9245C61.5316 74.5668 61.4364 74.1736 61.4311 73.774V63.046C61.4365 62.6465 61.5318 62.2533 61.71 61.8956C61.8881 61.538 62.1445 61.225 62.4601 60.98C63.0814 60.4848 63.8537 60.2176 64.6481 60.223H66.0921ZM58.8061 80.629C55.4482 76.266 53.6208 70.9185 53.6061 65.413V53.317L71.8061 48.073L89.9941 53.317V65.417C89.9795 70.9225 88.152 76.27 84.7941 80.633C81.5363 84.8908 76.9721 87.9627 71.8011 89.378C66.6302 87.9627 62.066 84.8908 58.8081 80.633L58.8061 80.629ZM53.8701 76.558H18.7401V78.593C18.7706 78.7853 18.8468 78.9674 18.9623 79.124C19.0779 79.2807 19.2294 79.4072 19.4041 79.493C20.0688 79.8876 20.8315 80.0862 21.6041 80.066H55.7841C55.0632 78.9438 54.4249 77.7707 53.8741 76.556L53.8701 76.558ZM50.9531 21.739C49.2973 21.197 47.6081 20.7627 45.8961 20.439C43.8851 20.0571 41.8431 19.8626 39.7961 19.858C37.6891 19.8563 35.5857 20.035 33.5091 20.392C31.859 20.6766 30.2304 21.0749 28.6351 21.584V26.859C28.6351 30.733 30.2151 32.386 32.4701 34.744C33.0511 35.352 33.6701 36.002 34.2841 36.693C35.8127 38.1439 37.8172 38.9885 39.9231 39.069C40.9151 39.0528 41.8939 38.8397 42.8027 38.4419C43.7116 38.0442 44.5323 37.4697 45.2171 36.752C45.8831 35.99 46.5011 35.34 47.0811 34.73C49.3221 32.37 50.9571 30.65 50.9571 26.859V21.739H50.9531ZM51.5711 15.97C51.4374 15.7233 51.4052 15.4341 51.4813 15.164C51.5574 14.8939 51.7358 14.6641 51.9787 14.5235C52.2215 14.3829 52.5097 14.3425 52.7818 14.4109C53.054 14.4794 53.2887 14.6512 53.4361 14.89L53.5791 15.136C53.7128 15.3827 53.7451 15.6719 53.669 15.942C53.5929 16.2121 53.4144 16.4419 53.1716 16.5825C52.9287 16.7231 52.6406 16.7635 52.3685 16.6951C52.0963 16.6267 51.8616 16.4548 51.7141 16.216L51.5711 15.97ZM41.7411 4.72C41.503 4.57945 41.3279 4.35275 41.2522 4.08677C41.1765 3.82079 41.2059 3.53589 41.3343 3.29097C41.4627 3.04606 41.6804 2.85987 41.9422 2.7709C42.2041 2.68194 42.4901 2.69701 42.7411 2.813C44.4135 3.74251 45.9274 4.93203 47.2261 6.337C48.887 8.10824 50.3826 10.0276 51.6941 12.071C51.8279 12.3093 51.8663 12.5895 51.8015 12.8549C51.7368 13.1204 51.5737 13.3515 51.3452 13.5014C51.1167 13.6513 50.8398 13.7089 50.5705 13.6626C50.3012 13.6163 50.0595 13.4696 49.8941 13.252C48.6574 11.3208 47.2472 9.50628 45.6811 7.831C44.5419 6.59234 43.2134 5.54228 41.7451 4.72H41.7411ZM39.1681 55.287C42.5871 51.531 47.3351 46.195 51.9211 40.94C56.1641 36.077 60.2501 31.305 62.9741 27.966C63.0571 27.866 63.0081 27.925 63.0881 27.829C63.4201 27.429 63.4681 27.365 62.9471 26.079C60.7648 20.563 58.0478 15.2738 54.8351 10.287C52.4621 6.765 49.8081 3.761 47.0601 2.316C44.7429 1.24723 42.3024 0.469314 39.7941 0C37.2843 0.469804 34.8424 1.24874 32.5241 2.319C29.7751 3.764 27.1241 6.768 24.7481 10.29C21.5359 15.2758 18.8193 20.564 16.6371 26.079C16.1151 27.365 16.1641 27.425 16.4961 27.829L16.6051 27.962C18.0131 29.688 19.5771 31.626 21.2891 33.748C26.9521 40.768 34.1941 49.748 39.1641 55.283L39.1681 55.287ZM39.0941 49.555C39.8331 48.667 40.7561 47.619 41.7941 46.444C46.0391 41.618 52.1941 34.628 54.2081 29.118C55.1891 26.439 55.1131 24.13 53.1151 22.718V26.855C53.1151 31.501 51.2291 33.487 48.6411 36.21C48.0531 36.829 47.4261 37.489 46.8031 38.203L46.7481 38.262C45.8644 39.1842 44.8054 39.9207 43.6332 40.4281C42.4611 40.9355 41.1994 41.2037 39.9221 41.217C37.2652 41.1383 34.7302 40.0847 32.8001 38.257L32.7491 38.212L32.7071 38.165C32.0501 37.42 31.4591 36.802 30.9071 36.225C28.3001 33.498 26.4731 31.588 26.4731 26.855V22.43C23.8681 23.886 23.7321 26.541 24.8661 29.635C26.9251 35.262 32.8941 42.258 36.8941 46.951C37.7261 47.925 38.4741 48.803 39.0941 49.551V49.555ZM52.4561 19.97L52.3831 19.942C50.3959 19.2521 48.3608 18.7087 46.2941 18.316C44.1513 17.9082 41.9754 17.6996 39.7941 17.693C37.5653 17.6925 35.3406 17.8825 33.1441 18.261C31.1578 18.6038 29.2016 19.1033 27.2941 19.755C27.2285 19.7708 27.1645 19.7929 27.1031 19.821L26.8111 19.921C26.7831 19.929 26.7551 19.937 26.7271 19.948C21.6611 21.804 21.1391 25.741 22.8371 30.374C25.0291 36.357 31.1521 43.534 35.2581 48.348C36.4911 49.793 37.5381 51.02 38.2231 51.917C38.2477 51.952 38.2744 51.9854 38.3031 52.017L38.3081 52.023L38.3181 52.033L38.3301 52.045L38.3351 52.05C38.4224 52.1364 38.5239 52.2071 38.6351 52.259L38.6471 52.264C38.7807 52.3247 38.9254 52.3571 39.0721 52.359H39.1041C39.2509 52.3571 39.3956 52.3247 39.5291 52.264L39.5411 52.259C39.6524 52.2071 39.7539 52.1364 39.8411 52.05V52.045L39.8531 52.033L39.8631 52.023V52.017C39.8919 51.9854 39.9186 51.952 39.9431 51.917C40.6841 50.947 41.9261 49.535 43.3941 47.867C47.7481 42.918 54.0551 35.75 56.2141 29.858C57.8241 25.463 57.2691 21.758 52.4401 19.967L52.4561 19.97ZM51.9711 70.68C50.0909 70.6953 48.2213 70.9644 46.4131 71.48C45.1177 71.8111 43.8518 72.2482 42.6281 72.787C43.2948 73.281 43.9641 73.8167 44.6361 74.394H52.9991C52.5685 73.1807 52.2249 71.9382 51.9711 70.676V70.68ZM38.0851 70.092L37.9631 70.038C35.8946 69.0943 33.6604 68.5672 31.3881 68.487C30.0281 67.105 26.7011 65.676 23.0411 64.555C22.7038 64.451 22.3638 64.351 22.0211 64.255L22.1641 57.978C22.1697 57.6926 22.0617 57.4167 21.8638 57.211C21.666 57.0053 21.3945 56.8866 21.1091 56.881C20.8238 56.8754 20.5479 56.9835 20.3421 57.1813C20.1364 57.3792 20.0177 57.6506 20.0121 57.936L19.8821 63.674H19.8651C16.9129 62.8247 13.859 62.3807 10.7871 62.354C10.5034 62.3806 10.2416 62.5182 10.0589 62.737C9.87622 62.9557 9.78739 63.2378 9.8118 63.5218C9.83622 63.8058 9.97188 64.0686 10.1892 64.2529C10.4066 64.4373 10.688 64.5282 10.9721 64.506C12.4091 64.4653 13.8459 64.5905 15.2541 64.879C14.2689 65.3361 13.381 65.9788 12.6391 66.772C12.5483 66.882 12.4801 67.0089 12.4387 67.1455C12.3973 67.282 12.3835 67.4254 12.3979 67.5674C12.4124 67.7093 12.455 67.8469 12.5231 67.9723C12.5912 68.0977 12.6836 68.2082 12.7948 68.2976C12.906 68.387 13.0339 68.4533 13.171 68.4929C13.3081 68.5324 13.4517 68.5443 13.5934 68.5279C13.7351 68.5114 13.8722 68.467 13.9966 68.3971C14.121 68.3273 14.2303 68.2334 14.3181 68.121C15.214 67.2653 16.2985 66.6322 17.4841 66.273C18.1739 66.024 18.896 65.8761 19.6281 65.834C20.5581 66.073 21.4951 66.334 22.4081 66.616C25.7321 67.635 28.6831 68.83 29.7081 69.83L28.6551 74.397H18.4411C18.0386 74.3955 17.6439 74.5086 17.3031 74.723C17.0848 74.8538 16.9038 75.0384 16.7772 75.2592C16.6506 75.48 16.5828 75.7295 16.5801 75.984V76.484C15.4851 76.342 14.4141 76.193 13.3801 76.034C11.9661 75.817 10.6311 75.583 9.41313 75.325C7.83778 74.9975 6.28308 74.5774 4.75713 74.067C3.56635 73.6803 2.41433 73.1832 1.31614 72.582C0.777883 72.3548 0.350004 71.9258 0.124135 71.387C-0.0809195 70.2035 -0.0314891 68.9899 0.269135 67.827C0.799319 64.9626 1.50668 62.1338 2.38714 59.357C3.20199 56.6907 4.1901 54.0805 5.34513 51.543C6.47678 49.1115 7.84291 46.7962 9.42414 44.63C10.7085 42.8785 12.1228 41.2262 13.6551 39.687C14.8491 38.479 15.9551 37.487 17.0011 36.616C17.8131 35.943 18.5891 35.343 19.3511 34.773L19.6141 35.099C25.4721 42.362 33.0211 51.72 38.0851 57.292V70.092ZM38.7031 72.815C38.6635 72.796 38.6251 72.7746 38.5881 72.751C38.0895 72.479 37.5915 72.2327 37.0941 72.012C35.4025 71.2409 33.5851 70.7825 31.7301 70.659L30.8681 74.398H41.1781C40.7901 74.1173 40.4028 73.8507 40.0161 73.598C39.9934 73.5852 39.9714 73.5712 39.9501 73.556C39.5341 73.2893 39.1185 73.041 38.7031 72.811V72.815ZM40.2451 57.296C43.7451 53.465 48.7571 47.839 53.5451 42.357C55.8561 39.709 58.1211 37.087 60.1451 34.708C60.9371 35.299 61.7451 35.92 62.5871 36.62C63.6321 37.487 64.7341 38.487 65.9271 39.687C66.8581 40.628 67.8271 41.68 68.7831 42.85C69.5631 43.806 70.3531 44.861 71.1321 46.027L52.3321 51.446C52.0839 51.4918 51.8596 51.6231 51.6981 51.8171C51.5366 52.0111 51.4482 52.2556 51.4481 52.508V65.408C51.4484 66.4464 51.5095 67.4838 51.6311 68.515C49.6825 68.5744 47.748 68.8675 45.8691 69.388C44.0326 69.8471 42.2579 70.5253 40.5831 71.408L40.2491 71.208L40.2451 57.296Z" fill="#00FF26"/>
</svg>
